# Blender 4.4.3
# www.blender.org
mtllib Map01.mtl
o Cube
v 70.000000 1.000000 -20.000000
v 70.000000 -1.000000 -20.000000
v 70.000000 1.000000 20.000000
v 70.000000 -1.000000 20.000000
v -70.000000 1.000000 -20.000000
v -70.000000 -1.000000 -20.000000
v -70.000000 1.000000 20.000000
v -70.000000 -1.000000 20.000000
v -59.619755 1.000000 0.000000
v -59.580143 1.000000 0.402199
v -59.580143 1.000000 -0.402199
v -59.272312 1.000000 1.145367
v -59.462826 1.000000 0.788943
v -59.462826 1.000000 -0.788943
v -59.272312 1.000000 -1.145367
v -57.960350 1.000000 -2.021993
v -57.960350 1.000000 2.021993
v -58.347092 1.000000 1.904675
v -58.703518 1.000000 1.714163
v -59.015930 1.000000 1.457776
v -59.015930 1.000000 -1.457776
v -58.703518 1.000000 -1.714163
v -58.347092 1.000000 -1.904675
v -57.155952 1.000000 2.021993
v -57.155952 1.000000 -2.021993
v -55.496548 1.000000 0.000000
v -55.536160 1.000000 -0.402199
v -55.536160 1.000000 0.402199
v -55.653477 1.000000 -0.788943
v -55.843990 1.000000 1.145367
v -55.653477 1.000000 0.788943
v -55.843990 1.000000 -1.145367
v -56.100376 1.000000 -1.457776
v -56.412785 1.000000 1.714163
v -56.100376 1.000000 1.457776
v -56.412785 1.000000 -1.714163
v -56.769211 1.000000 -1.904675
v -56.769211 1.000000 1.904675
v -57.558151 1.000000 2.061606
v -57.558151 1.000000 -2.061606
v -59.619755 -1.000000 0.000000
v -59.580143 -1.000000 0.402199
v -59.580143 -1.000000 -0.402199
v -59.272312 -1.000000 1.145367
v -59.462826 -1.000000 0.788943
v -59.462826 -1.000000 -0.788943
v -59.272312 -1.000000 -1.145367
v -57.960350 -1.000000 2.021993
v -57.960350 -1.000000 -2.021993
v -58.347092 -1.000000 1.904675
v -58.703518 -1.000000 1.714163
v -59.015930 -1.000000 1.457776
v -59.015930 -1.000000 -1.457776
v -58.703518 -1.000000 -1.714163
v -58.347092 -1.000000 -1.904675
v -57.155952 -1.000000 2.021993
v -57.155952 -1.000000 -2.021993
v -55.496548 -1.000000 0.000000
v -55.536160 -1.000000 -0.402199
v -55.536160 -1.000000 0.402199
v -55.653477 -1.000000 -0.788943
v -55.843990 -1.000000 1.145367
v -55.653477 -1.000000 0.788943
v -55.843990 -1.000000 -1.145367
v -56.100376 -1.000000 -1.457776
v -56.769211 -1.000000 1.904675
v -56.412785 -1.000000 1.714163
v -56.100376 -1.000000 1.457776
v -56.412785 -1.000000 -1.714163
v -57.558151 -1.000000 2.061606
v -56.769211 -1.000000 -1.904675
v -57.558151 -1.000000 -2.061606
vn -0.0000 1.0000 -0.0000
vn -0.0000 -0.0000 1.0000
vn -1.0000 -0.0000 -0.0000
vn -0.0000 -1.0000 -0.0000
vn 1.0000 -0.0000 -0.0000
vn -0.0000 -0.0000 -1.0000
vn -0.0980 -0.0000 0.9952
vn -0.2903 -0.0000 0.9569
vn -0.4714 -0.0000 0.8819
vn -0.6344 -0.0000 0.7730
vn -0.7730 -0.0000 0.6344
vn -0.8819 -0.0000 0.4714
vn -0.9569 -0.0000 0.2903
vn -0.9952 -0.0000 0.0980
vn -0.9952 -0.0000 -0.0980
vn -0.9569 -0.0000 -0.2903
vn -0.8819 -0.0000 -0.4714
vn -0.7730 -0.0000 -0.6344
vn -0.6344 -0.0000 -0.7730
vn -0.4714 -0.0000 -0.8819
vn -0.2903 -0.0000 -0.9569
vn -0.0980 -0.0000 -0.9952
vn 0.0980 -0.0000 -0.9952
vn 0.2903 -0.0000 -0.9569
vn 0.4714 -0.0000 -0.8819
vn 0.6344 -0.0000 -0.7730
vn 0.7730 -0.0000 -0.6344
vn 0.8819 -0.0000 -0.4714
vn 0.9569 -0.0000 -0.2903
vn 0.9952 -0.0000 -0.0980
vn 0.9952 -0.0000 0.0980
vn 0.9569 -0.0000 0.2903
vn 0.8819 -0.0000 0.4714
vn 0.7730 -0.0000 0.6344
vn 0.6344 -0.0000 0.7730
vn 0.4714 -0.0000 0.8819
vn 0.2903 -0.0000 0.9569
vn 0.0980 -0.0000 0.9952
vt 0.852782 0.637885
vt 0.875000 0.750000
vt 0.625000 0.750000
vt 0.625000 0.500000
vt 0.875000 0.500000
vt 0.852782 0.612115
vt 0.852064 0.612363
vt 0.851374 0.613096
vt 0.850737 0.614286
vt 0.850179 0.615889
vt 0.849721 0.617841
vt 0.849381 0.620069
vt 0.849172 0.622486
vt 0.849101 0.625000
vt 0.849172 0.627514
vt 0.849381 0.629931
vt 0.849721 0.632159
vt 0.850179 0.634111
vt 0.850737 0.635714
vt 0.851373 0.636904
vt 0.852064 0.637637
vt 0.853501 0.637637
vt 0.854191 0.636904
vt 0.854828 0.635714
vt 0.855386 0.634111
vt 0.855843 0.632159
vt 0.856184 0.629931
vt 0.856393 0.627514
vt 0.856464 0.625000
vt 0.856393 0.622486
vt 0.856184 0.620069
vt 0.855843 0.617841
vt 0.855386 0.615889
vt 0.854828 0.614286
vt 0.854191 0.613096
vt 0.853501 0.612363
vt 0.375000 0.750000
vt 0.625000 1.000000
vt 0.375000 1.000000
vt 0.375000 0.000000
vt 0.625000 0.000000
vt 0.625000 0.250000
vt 0.375000 0.250000
vt 0.147218 0.637885
vt 0.125000 0.750000
vt 0.125000 0.500000
vt 0.147218 0.612115
vt 0.146499 0.612363
vt 0.145809 0.613096
vt 0.145172 0.614286
vt 0.144614 0.615889
vt 0.144157 0.617841
vt 0.143816 0.620069
vt 0.143607 0.622486
vt 0.143536 0.625000
vt 0.143607 0.627514
vt 0.143816 0.629931
vt 0.144157 0.632159
vt 0.144614 0.634111
vt 0.145172 0.635713
vt 0.145809 0.636904
vt 0.146499 0.637637
vt 0.375000 0.500000
vt 0.147936 0.637637
vt 0.148626 0.636904
vt 0.149263 0.635714
vt 0.149821 0.634111
vt 0.150279 0.632159
vt 0.150619 0.629931
vt 0.150828 0.627514
vt 0.150899 0.625000
vt 0.150828 0.622486
vt 0.150619 0.620069
vt 0.150279 0.617841
vt 0.149821 0.615889
vt 0.149263 0.614286
vt 0.148626 0.613096
vt 0.147936 0.612363
vt 0.968750 0.621763
vt 0.968750 0.878237
vt 1.000000 0.878237
vt 1.000000 0.621763
vt 0.937500 0.878237
vt 0.937500 0.621763
vt 0.906250 0.878237
vt 0.937500 0.878237
vt 0.937500 0.621763
vt 0.906250 0.621763
vt 0.875000 0.878237
vt 0.875000 0.621763
vt 0.843750 0.878237
vt 0.843750 0.621763
vt 0.812500 0.878237
vt 0.843750 0.878237
vt 0.812500 0.621763
vt 0.781250 0.878237
vt 0.781250 0.621763
vt 0.750000 0.878237
vt 0.750000 0.621763
vt 0.718750 0.878237
vt 0.718750 0.621763
vt 0.687500 0.878237
vt 0.687500 0.621763
vt 0.656250 0.878237
vt 0.687500 0.878237
vt 0.687500 0.621763
vt 0.656250 0.621763
vt 0.625000 0.878237
vt 0.625000 0.621763
vt 0.593750 0.878237
vt 0.593750 0.621763
vt 0.562500 0.878237
vt 0.562500 0.621763
vt 0.531250 0.878237
vt 0.531250 0.621763
vt 0.500000 0.878237
vt 0.500000 0.621763
vt 0.468750 0.878237
vt 0.468750 0.621763
vt 0.437500 0.621763
vt 0.437500 0.878237
vt 0.468750 0.878237
vt 0.468750 0.621763
vt 0.406250 0.621763
vt 0.406250 0.878237
vt 0.375000 0.621763
vt 0.375000 0.878237
vt 0.343750 0.621763
vt 0.343750 0.878237
vt 0.312500 0.621763
vt 0.312500 0.878237
vt 0.343750 0.878237
vt 0.343750 0.621763
vt 0.281250 0.621763
vt 0.281250 0.878237
vt 0.250000 0.621763
vt 0.250000 0.878237
vt 0.218750 0.621763
vt 0.218750 0.878237
vt 0.187500 0.621763
vt 0.187500 0.878237
vt 0.156250 0.621763
vt 0.156250 0.878237
vt 0.125000 0.621763
vt 0.125000 0.878237
vt 0.093750 0.621763
vt 0.093750 0.878237
vt 0.062500 0.621763
vt 0.062500 0.878237
vt 0.031250 0.621763
vt 0.031250 0.878237
vt 0.000000 0.621763
vt 0.000000 0.878237
s 0
usemtl Material
f 39/1/1 7/2/1 3/3/1 1/4/1 5/5/1 40/6/1 25/7/1 37/8/1 36/9/1 33/10/1 32/11/1 29/12/1 27/13/1 26/14/1 28/15/1 31/16/1 30/17/1 35/18/1 34/19/1 38/20/1 24/21/1
f 5/5/1 7/2/1 39/1/1 17/22/1 18/23/1 19/24/1 20/25/1 12/26/1 13/27/1 10/28/1 9/29/1 11/30/1 14/31/1 15/32/1 21/33/1 22/34/1 23/35/1 16/36/1 40/6/1
f 4/37/2 3/3/2 7/38/2 8/39/2
f 8/40/3 7/41/3 5/42/3 6/43/3
f 70/44/4 8/45/4 6/46/4 72/47/4 49/48/4 55/49/4 54/50/4 53/51/4 47/52/4 46/53/4 43/54/4 41/55/4 42/56/4 45/57/4 44/58/4 52/59/4 51/60/4 50/61/4 48/62/4
f 72/47/4 6/46/4 2/63/4 4/37/4 8/45/4 70/44/4 56/64/4 66/65/4 67/66/4 68/67/4 62/68/4 63/69/4 60/70/4 58/71/4 59/72/4 61/73/4 64/74/4 65/75/4 69/76/4 71/77/4 57/78/4
f 2/63/5 1/4/5 3/3/5 4/37/5
f 6/43/6 5/42/6 1/4/6 2/63/6
f 57/79/7 25/80/7 40/81/7 72/82/7
f 37/83/8 25/80/8 57/79/8 71/84/8
f 36/85/9 37/86/9 71/87/9 69/88/9
f 33/89/10 36/85/10 69/88/10 65/90/10
f 32/91/11 33/89/11 65/90/11 64/92/11
f 29/93/12 32/94/12 64/92/12 61/95/12
f 27/96/13 29/93/13 61/95/13 59/97/13
f 26/98/14 27/96/14 59/97/14 58/99/14
f 28/100/15 26/98/15 58/99/15 60/101/15
f 31/102/16 28/100/16 60/101/16 63/103/16
f 30/104/17 31/105/17 63/106/17 62/107/17
f 35/108/18 30/104/18 62/107/18 68/109/18
f 34/110/19 35/108/19 68/109/19 67/111/19
f 38/112/20 34/110/20 67/111/20 66/113/20
f 24/114/21 38/112/21 66/113/21 56/115/21
f 39/116/22 24/114/22 56/115/22 70/117/22
f 17/118/23 39/116/23 70/117/23 48/119/23
f 50/120/24 18/121/24 17/122/24 48/123/24
f 51/124/25 19/125/25 18/121/25 50/120/25
f 52/126/26 20/127/26 19/125/26 51/124/26
f 44/128/27 12/129/27 20/127/27 52/126/27
f 45/130/28 13/131/28 12/132/28 44/133/28
f 42/134/29 10/135/29 13/131/29 45/130/29
f 41/136/30 9/137/30 10/135/30 42/134/30
f 43/138/31 11/139/31 9/137/31 41/136/31
f 46/140/32 14/141/32 11/139/32 43/138/32
f 47/142/33 15/143/33 14/141/33 46/140/33
f 53/144/34 21/145/34 15/143/34 47/142/34
f 54/146/35 22/147/35 21/145/35 53/144/35
f 55/148/36 23/149/36 22/147/36 54/146/36
f 49/150/37 16/151/37 23/149/37 55/148/37
f 72/152/38 40/153/38 16/151/38 49/150/38
o Cube.001
v 71.051865 -0.367506 -20.674820
v -57.558151 -1.949508 -2.061606
v 71.051865 -2.910685 -20.674820
v 71.051865 -0.367506 20.674820
v -57.155952 -1.949508 -2.021993
v 71.051865 -2.910685 20.674820
v -56.769211 -1.949508 -1.904675
v -71.051865 -0.367506 -20.674820
v -71.051865 -2.910685 -20.674820
v -71.051865 -0.367506 20.674820
v -56.412785 -1.949508 -1.714163
v -71.051865 -2.910685 20.674820
v -56.100376 -1.949508 -1.457776
v -55.843987 -1.949508 -1.145367
v -55.653477 -1.949508 -0.788943
v -55.536156 -1.949508 -0.402199
v -55.496548 -1.949508 0.000000
v -55.536156 -1.949508 0.402199
v -55.653477 -1.949508 0.788943
v -55.843987 -1.949508 1.145367
v -56.100376 -1.949508 1.457776
v -56.412785 -1.949508 1.714163
v -56.769211 -1.949508 1.904675
v -57.155952 -1.949508 2.021993
v -57.558151 -1.949508 2.061606
v -57.960350 -1.949508 2.021993
v -58.347092 -1.949508 1.904675
v -58.703518 -1.949508 1.714163
v -59.015926 -1.949508 1.457776
v -59.272316 -1.949508 1.145367
v -59.462826 -1.949508 0.788943
v -59.580147 -1.949508 0.402199
v -59.619755 -1.949508 0.000000
v -59.580147 -1.949508 -0.402199
v -59.462826 -1.949508 -0.788943
v -59.272316 -1.949508 -1.145367
v -59.015926 -1.949508 -1.457776
v -58.703518 -1.949508 -1.714163
v -58.347092 -1.949508 -1.904675
v -57.960350 -1.949508 -2.021993
v -59.619755 -0.367506 0.000000
v -59.580147 -0.367506 0.402199
v -59.580147 -0.367506 -0.402199
v -59.272316 -0.367506 1.145367
v -59.462826 -0.367506 0.788943
v -59.462826 -0.367506 -0.788943
v -59.272316 -0.367506 -1.145367
v -57.960350 -0.367506 2.021993
v -57.960350 -0.367506 -2.021993
v -58.347092 -0.367506 1.904675
v -58.703518 -0.367506 1.714163
v -59.015926 -0.367506 1.457776
v -59.015926 -0.367506 -1.457776
v -58.703518 -0.367506 -1.714163
v -58.347092 -0.367506 -1.904675
v -57.155952 -0.367506 2.021993
v -57.155952 -0.367506 -2.021993
v -55.496548 -0.367506 0.000000
v -55.536156 -0.367506 -0.402199
v -55.536156 -0.367506 0.402199
v -55.653477 -0.367506 -0.788943
v -55.843987 -0.367506 1.145367
v -55.653477 -0.367506 0.788943
v -55.843987 -0.367506 -1.145367
v -56.100376 -0.367506 -1.457776
v -56.412785 -0.367506 1.714163
v -56.100376 -0.367506 1.457776
v -56.412785 -0.367506 -1.714163
v -56.769211 -0.367506 -1.904675
v -56.769211 -0.367506 1.904675
v -57.558151 -0.367506 2.061606
v -57.558151 -0.367506 -2.061606
vn -0.0000 1.0000 -0.0000
vn -0.0000 -0.0000 1.0000
vn -1.0000 -0.0000 -0.0000
vn -0.0000 -1.0000 -0.0000
vn 1.0000 -0.0000 -0.0000
vn -0.0000 -0.0000 -1.0000
vn -0.0980 -0.0000 0.9952
vn -0.2903 -0.0000 0.9569
vn -0.4714 -0.0000 0.8819
vn -0.6344 -0.0000 0.7730
vn -0.7730 -0.0000 0.6344
vn -0.8819 -0.0000 0.4714
vn -0.9569 -0.0000 0.2903
vn -0.9952 -0.0000 0.0980
vn -0.9952 -0.0000 -0.0980
vn -0.9569 -0.0000 -0.2903
vn -0.8819 -0.0000 -0.4714
vn -0.7730 -0.0000 -0.6344
vn -0.6344 -0.0000 -0.7730
vn -0.4714 -0.0000 -0.8819
vn -0.2903 -0.0000 -0.9569
vn -0.0980 -0.0000 -0.9952
vn 0.0980 -0.0000 -0.9952
vn 0.2903 -0.0000 -0.9569
vn 0.4714 -0.0000 -0.8819
vn 0.6344 -0.0000 -0.7730
vn 0.7730 -0.0000 -0.6344
vn 0.8819 -0.0000 -0.4714
vn 0.9569 -0.0000 -0.2903
vn 0.9952 -0.0000 -0.0980
vn 0.9952 -0.0000 0.0980
vn 0.9569 -0.0000 0.2903
vn 0.8819 -0.0000 0.4714
vn 0.7730 -0.0000 0.6344
vn 0.6344 -0.0000 0.7730
vn 0.4714 -0.0000 0.8819
vn 0.2903 -0.0000 0.9569
vn 0.0980 -0.0000 0.9952
vt 0.851261 0.637465
vt 0.875000 0.750000
vt 0.625000 0.750000
vt 0.625000 0.500000
vt 0.875000 0.500000
vt 0.851261 0.612536
vt 0.850553 0.612775
vt 0.849873 0.613484
vt 0.849246 0.614636
vt 0.848696 0.616186
vt 0.848245 0.618075
vt 0.847910 0.620230
vt 0.847704 0.622568
vt 0.847634 0.625000
vt 0.847704 0.627432
vt 0.847910 0.629770
vt 0.848245 0.631925
vt 0.848696 0.633814
vt 0.849246 0.635364
vt 0.849873 0.636516
vt 0.850553 0.637225
vt 0.851968 0.637225
vt 0.852649 0.636516
vt 0.853276 0.635364
vt 0.853825 0.633814
vt 0.854276 0.631925
vt 0.854612 0.629770
vt 0.854818 0.627432
vt 0.854888 0.625000
vt 0.854818 0.622568
vt 0.854612 0.620230
vt 0.854277 0.618075
vt 0.853825 0.616186
vt 0.853276 0.614636
vt 0.852649 0.613484
vt 0.851968 0.612775
vt 0.375000 0.750000
vt 0.625000 1.000000
vt 0.375000 1.000000
vt 0.375000 0.000000
vt 0.625000 0.000000
vt 0.625000 0.250000
vt 0.375000 0.250000
vt 0.125000 0.500000
vt 0.375000 0.500000
vt 0.125000 0.750000
vt 1.000000 0.702872
vt 1.000000 0.500000
vt 0.968750 0.500000
vt 0.968750 0.702872
vt 0.937500 0.500000
vt 0.937500 0.702872
vt 0.906250 0.500000
vt 0.906250 0.702872
vt 0.875000 0.702872
vt 0.843750 0.500000
vt 0.843750 0.702872
vt 0.812500 0.500000
vt 0.812500 0.702872
vt 0.781250 0.500000
vt 0.781250 0.702872
vt 0.750000 0.500000
vt 0.750000 0.702872
vt 0.718750 0.500000
vt 0.718750 0.702872
vt 0.687500 0.500000
vt 0.687500 0.702872
vt 0.656250 0.500000
vt 0.656250 0.702872
vt 0.625000 0.702872
vt 0.593750 0.500000
vt 0.593750 0.702872
vt 0.562500 0.500000
vt 0.562500 0.702872
vt 0.531250 0.500000
vt 0.531250 0.702872
vt 0.500000 0.500000
vt 0.500000 0.702872
vt 0.468750 0.500000
vt 0.468750 0.702872
vt 0.437500 0.500000
vt 0.437500 0.702872
vt 0.406250 0.500000
vt 0.406250 0.702872
vt 0.375000 0.702872
vt 0.343750 0.500000
vt 0.343750 0.702872
vt 0.312500 0.500000
vt 0.312500 0.702872
vt 0.281250 0.500000
vt 0.281250 0.702872
vt 0.250000 0.500000
vt 0.250000 0.702872
vt 0.218750 0.500000
vt 0.218750 0.702872
vt 0.187500 0.500000
vt 0.187500 0.702872
vt 0.156250 0.500000
vt 0.156250 0.702872
vt 0.125000 0.702872
vt 0.093750 0.500000
vt 0.093750 0.702872
vt 0.062500 0.500000
vt 0.062500 0.702872
vt 0.031250 0.500000
vt 0.031250 0.702872
vt 0.000000 0.500000
vt 0.000000 0.702872
vt 0.796822 0.014612
vt 0.841844 0.028269
vt 0.883337 0.050447
vt 0.919706 0.080294
vt 0.949553 0.116663
vt 0.971731 0.158156
vt 0.985388 0.203178
vt 0.990000 0.250000
vt 0.985388 0.296822
vt 0.971731 0.341844
vt 0.949553 0.383337
vt 0.919706 0.419706
vt 0.883337 0.449553
vt 0.841844 0.471731
vt 0.796822 0.485388
vt 0.750000 0.490000
vt 0.703178 0.485388
vt 0.658156 0.471731
vt 0.616663 0.449553
vt 0.580294 0.419706
vt 0.550447 0.383337
vt 0.528269 0.341844
vt 0.514612 0.296822
vt 0.510000 0.250000
vt 0.514612 0.203178
vt 0.528269 0.158156
vt 0.550447 0.116663
vt 0.580294 0.080294
vt 0.616663 0.050447
vt 0.658156 0.028269
vt 0.703178 0.014612
vt 0.750000 0.010000
s 0
usemtl Material.001
f 143/154/39 82/155/39 76/156/39 73/157/39 80/158/39 144/159/39 129/160/39 141/161/39 140/162/39 137/163/39 136/164/39 133/165/39 131/166/39 130/167/39 132/168/39 135/169/39 134/170/39 139/171/39 138/172/39 142/173/39 128/174/39
f 80/158/39 82/155/39 143/154/39 120/175/39 122/176/39 123/177/39 124/178/39 116/179/39 117/180/39 114/181/39 113/182/39 115/183/39 118/184/39 119/185/39 125/186/39 126/187/39 127/188/39 121/189/39 144/159/39
f 78/190/40 76/156/40 82/191/40 84/192/40
f 84/193/41 82/194/41 80/195/41 81/196/41
f 81/197/42 75/198/42 78/190/42 84/199/42
f 75/198/43 73/157/43 76/156/43 78/190/43
f 81/196/44 80/195/44 73/157/44 75/198/44
f 144/200/45 74/201/45 77/202/45 129/203/45
f 77/202/46 79/204/46 141/205/46 129/203/46
f 79/204/47 83/206/47 140/207/47 141/205/47
f 83/206/48 85/158/48 137/208/48 140/207/48
f 85/158/49 86/209/49 136/210/49 137/208/49
f 86/209/50 87/211/50 133/212/50 136/210/50
f 87/211/51 88/213/51 131/214/51 133/212/51
f 88/213/52 89/215/52 130/216/52 131/214/52
f 89/215/53 90/217/53 132/218/53 130/216/53
f 90/217/54 91/219/54 135/220/54 132/218/54
f 91/219/55 92/221/55 134/222/55 135/220/55
f 92/221/56 93/157/56 139/223/56 134/222/56
f 93/157/57 94/224/57 138/225/57 139/223/57
f 94/224/58 95/226/58 142/227/58 138/225/58
f 95/226/59 96/228/59 128/229/59 142/227/59
f 96/228/60 97/230/60 143/231/60 128/229/60
f 97/230/61 98/232/61 120/233/61 143/231/61
f 120/233/62 98/232/62 99/234/62 122/235/62
f 122/235/63 99/234/63 100/236/63 123/237/63
f 123/237/64 100/236/64 101/198/64 124/238/64
f 124/238/65 101/198/65 102/239/65 116/240/65
f 116/240/66 102/239/66 103/241/66 117/242/66
f 117/242/67 103/241/67 104/243/67 114/244/67
f 114/244/68 104/243/68 105/245/68 113/246/68
f 113/246/69 105/245/69 106/247/69 115/248/69
f 115/248/70 106/247/70 107/249/70 118/250/70
f 118/250/71 107/249/71 108/251/71 119/252/71
f 119/252/72 108/251/72 109/197/72 125/253/72
f 125/253/73 109/197/73 110/254/73 126/255/73
f 126/255/74 110/254/74 111/256/74 127/257/74
f 127/257/75 111/256/75 112/258/75 121/259/75
f 121/259/76 112/258/76 74/260/76 144/261/76
f 96/262/39 95/263/39 94/264/39 93/265/39 92/266/39 91/267/39 90/268/39 89/269/39 88/270/39 87/271/39 86/272/39 85/273/39 83/274/39 79/275/39 77/276/39 74/277/39 112/278/39 111/279/39 110/280/39 109/281/39 108/282/39 107/283/39 106/284/39 105/285/39 104/286/39 103/287/39 102/288/39 101/289/39 100/290/39 99/291/39 98/292/39 97/293/39
o Cube.002
v -70.000000 0.965670 20.002268
v -70.000000 2.128428 20.002268
v -70.000000 0.965670 19.287733
v -70.000000 2.128428 19.287733
v 70.000000 0.965670 20.002268
v 70.000000 2.128428 20.002268
v 70.000000 0.965670 19.287733
v 70.000000 2.128428 19.287733
vn -1.0000 -0.0000 -0.0000
vn -0.0000 -0.0000 -1.0000
vn 1.0000 -0.0000 -0.0000
vn -0.0000 -0.0000 1.0000
vn -0.0000 -1.0000 -0.0000
vn -0.0000 1.0000 -0.0000
vt 0.375000 0.000000
vt 0.625000 0.000000
vt 0.625000 0.250000
vt 0.375000 0.250000
vt 0.625000 0.500000
vt 0.375000 0.500000
vt 0.625000 0.750000
vt 0.375000 0.750000
vt 0.625000 1.000000
vt 0.375000 1.000000
vt 0.125000 0.500000
vt 0.125000 0.750000
vt 0.875000 0.500000
vt 0.875000 0.750000
s 0
f 145/294/77 146/295/77 148/296/77 147/297/77
f 147/297/78 148/296/78 152/298/78 151/299/78
f 151/299/79 152/298/79 150/300/79 149/301/79
f 149/301/80 150/300/80 146/302/80 145/303/80
f 147/304/81 151/299/81 149/301/81 145/305/81
f 152/298/82 148/306/82 146/307/82 150/300/82
o Cube.003
v -70.000000 0.965670 -19.287733
v -70.000000 2.128428 -19.287733
v -70.000000 0.965670 -20.002268
v -70.000000 2.128428 -20.002268
v 70.000000 0.965670 -19.287733
v 70.000000 2.128428 -19.287733
v 70.000000 0.965670 -20.002268
v 70.000000 2.128428 -20.002268
vn -1.0000 -0.0000 -0.0000
vn -0.0000 -0.0000 -1.0000
vn 1.0000 -0.0000 -0.0000
vn -0.0000 -0.0000 1.0000
vn -0.0000 -1.0000 -0.0000
vn -0.0000 1.0000 -0.0000
vt 0.375000 0.000000
vt 0.625000 0.000000
vt 0.625000 0.250000
vt 0.375000 0.250000
vt 0.625000 0.500000
vt 0.375000 0.500000
vt 0.625000 0.750000
vt 0.375000 0.750000
vt 0.625000 1.000000
vt 0.375000 1.000000
vt 0.125000 0.500000
vt 0.125000 0.750000
vt 0.875000 0.500000
vt 0.875000 0.750000
s 0
f 153/308/83 154/309/83 156/310/83 155/311/83
f 155/311/84 156/310/84 160/312/84 159/313/84
f 159/313/85 160/312/85 158/314/85 157/315/85
f 157/315/86 158/314/86 154/316/86 153/317/86
f 155/318/87 159/313/87 157/315/87 153/319/87
f 160/312/88 156/320/88 154/321/88 158/314/88
o Cube.004
v 70.014076 0.965670 19.291378
v 70.014076 2.128428 19.291378
v 69.299538 0.965670 19.291378
v 69.299538 2.128428 19.291378
v 70.014076 0.965670 -19.291378
v 70.014076 2.128428 -19.291378
v 69.299538 0.965670 -19.291378
v 69.299538 2.128428 -19.291378
vn -0.0000 -0.0000 1.0000
vn -1.0000 -0.0000 -0.0000
vn -0.0000 -0.0000 -1.0000
vn 1.0000 -0.0000 -0.0000
vn -0.0000 -1.0000 -0.0000
vn -0.0000 1.0000 -0.0000
vt 0.375000 0.000000
vt 0.625000 0.000000
vt 0.625000 0.250000
vt 0.375000 0.250000
vt 0.625000 0.500000
vt 0.375000 0.500000
vt 0.625000 0.750000
vt 0.375000 0.750000
vt 0.625000 1.000000
vt 0.375000 1.000000
vt 0.125000 0.500000
vt 0.125000 0.750000
vt 0.875000 0.500000
vt 0.875000 0.750000
s 0
f 161/322/89 162/323/89 164/324/89 163/325/89
f 163/325/90 164/324/90 168/326/90 167/327/90
f 167/327/91 168/326/91 166/328/91 165/329/91
f 165/329/92 166/328/92 162/330/92 161/331/92
f 163/332/93 167/327/93 165/329/93 161/333/93
f 168/326/94 164/334/94 162/335/94 166/328/94
o Cube.005
v -69.275146 0.965670 19.291378
v -69.275146 2.128428 19.291378
v -69.989685 0.965670 19.291378
v -69.989685 2.128428 19.291378
v -69.275146 0.965670 -19.291378
v -69.275146 2.128428 -19.291378
v -69.989685 0.965670 -19.291378
v -69.989685 2.128428 -19.291378
vn -0.0000 -0.0000 1.0000
vn -1.0000 -0.0000 -0.0000
vn -0.0000 -0.0000 -1.0000
vn 1.0000 -0.0000 -0.0000
vn -0.0000 -1.0000 -0.0000
vn -0.0000 1.0000 -0.0000
vt 0.375000 0.000000
vt 0.625000 0.000000
vt 0.625000 0.250000
vt 0.375000 0.250000
vt 0.625000 0.500000
vt 0.375000 0.500000
vt 0.625000 0.750000
vt 0.375000 0.750000
vt 0.625000 1.000000
vt 0.375000 1.000000
vt 0.125000 0.500000
vt 0.125000 0.750000
vt 0.875000 0.500000
vt 0.875000 0.750000
s 0
f 169/336/95 170/337/95 172/338/95 171/339/95
f 171/339/96 172/338/96 176/340/96 175/341/96
f 175/341/97 176/340/97 174/342/97 173/343/97
f 173/343/98 174/342/98 170/344/98 169/345/98
f 171/346/99 175/341/99 173/343/99 169/347/99
f 176/340/100 172/348/100 170/349/100 174/342/100
